<svg width="43" height="50" viewBox="0 0 43 50" fill="none" xmlns="http://www.w3.org/2000/svg">
<path d="M18.5574 0.233831C10.105 2.38835 5.89071 11.693 9.89195 19.364C13.9879 27.1297 24.6658 28.7634 30.8689 22.5366C35.2726 18.1565 36.0539 11.6457 32.8577 6.1765C31.4371 3.76155 28.3592 1.39395 25.4471 0.470591C23.8371 -0.0266056 20.0963 -0.168661 18.5574 0.233831ZM25.4707 4.59021C27.6253 5.5846 28.9985 6.95781 30.0639 9.08865C30.8925 10.7933 30.9399 11.0064 30.9399 13.1609C30.9399 15.3154 30.8925 15.5285 30.0639 17.2332C28.9985 19.3877 27.6253 20.7136 25.4234 21.7553C23.9792 22.4419 23.624 22.5129 21.5879 22.5129C19.5517 22.5129 19.1966 22.4419 17.7524 21.7553C15.5505 20.7136 14.1773 19.3877 13.1119 17.2332C12.2832 15.5285 12.2359 15.3154 12.2359 13.1846C12.2359 11.1248 12.3069 10.7696 12.9935 9.32541C13.9405 7.31295 15.2901 5.84504 17.0658 4.92167C18.9125 3.92728 19.9542 3.69053 22.1088 3.78523C23.553 3.85626 24.2869 4.04566 25.4707 4.59021Z" fill="#9C92C5"/>
<path d="M7.47593 24.5253C6.83668 24.7858 5.10833 26.7982 3.87718 28.7633C2.05413 31.5808 0.751953 35.9608 0.751953 39.2991C0.751953 43.7976 5.5345 47.0412 14.484 48.6038C17.6093 49.1483 25.5644 49.1483 28.6896 48.6038C37.6391 47.0412 42.4217 43.7976 42.4217 39.2991C42.4217 37.2867 41.8061 34.2325 40.9774 32.0543C39.7226 28.787 36.337 24.2886 35.1295 24.2886C33.8036 24.2886 32.7145 25.5434 33.0697 26.6562C33.1644 26.9166 33.7563 27.7453 34.4192 28.5029C36.7394 31.1546 38.2547 34.6823 38.5388 38.21C38.7046 40.0568 38.6809 40.0804 37.9469 40.9091C36.9289 42.0692 35.5556 42.8505 33.0223 43.6792C29.3999 44.8867 26.9849 45.2181 21.5868 45.2181C16.1887 45.2181 13.7737 44.8867 10.1513 43.6792C7.61799 42.8505 6.24478 42.0692 5.22671 40.9091C4.49276 40.0804 4.46908 40.0568 4.63481 38.21C4.91893 34.6823 6.43419 31.1546 8.77811 28.4792C9.7725 27.3428 9.98559 26.9403 9.98559 26.2063C9.98559 24.8568 8.70708 24.0045 7.47593 24.5253Z" fill="#9C92C5"/>
</svg>
