<svg width="40" height="49" viewBox="0 0 40 49" fill="none" xmlns="http://www.w3.org/2000/svg">
<path d="M2.93274 0.152996C1.87016 0.471775 0.95633 1.17308 0.467539 2.02315L0 2.87322V23.7212C0 44.2292 0 44.5905 0.425036 45.4193C0.977582 46.5031 2.18893 47.3107 3.52779 47.4595C4.42037 47.5657 4.73915 47.4807 5.82299 46.9282C7.60814 45.9718 8.22444 46.0356 9.66956 47.3319C11.1784 48.6283 12.5598 49.1383 14.2387 48.9683C15.7051 48.8408 16.5764 48.4158 17.894 47.2044C18.7228 46.4181 19.0416 46.2694 19.7429 46.2694C20.4442 46.2694 20.7842 46.4394 21.7831 47.3319C23.2919 48.6283 24.6733 49.1383 26.3522 48.9683C27.7973 48.8408 28.5411 48.4795 29.965 47.2257C31.2826 46.0568 31.9627 45.9931 33.6841 46.9069C35.0017 47.587 35.6605 47.672 36.7868 47.2894C37.8919 46.9282 38.657 46.3119 39.1033 45.4193C39.5283 44.6117 39.5283 44.0804 39.5283 23.7212V2.87322L39.0608 2.02315C38.7632 1.51311 38.1894 0.939312 37.6156 0.620537L36.6593 0.0467377L20.0829 0.00423431C10.9659 -0.0170174 3.25152 0.0467377 2.93274 0.152996ZM35.788 3.46827C36.0855 3.59578 36.128 5.5722 36.128 23.7425C36.128 35.4947 36.043 43.9529 35.9368 44.0167C35.8305 44.0804 35.1929 43.8466 34.5341 43.5066C33.5353 42.9753 33.0678 42.8691 31.8989 42.8691C30.1775 42.8691 29.1787 43.2941 27.6486 44.6542C26.1609 45.9931 25.4809 45.9931 23.9933 44.6542C22.4631 43.3154 21.443 42.8691 19.7642 42.8691C18.1065 42.8691 17.1289 43.2941 15.5563 44.6542C14.0049 45.9718 13.3249 45.9931 11.9222 44.6755C11.3697 44.1654 10.4984 43.5491 9.96708 43.3154C8.28819 42.5503 5.56797 42.8053 4.42037 43.8679C4.2291 44.0379 3.91033 44.1442 3.71906 44.0804C3.44279 43.9529 3.40028 41.7215 3.40028 23.7637C3.40028 7.82489 3.46404 3.57453 3.67656 3.48952C4.05909 3.31951 35.3842 3.31951 35.788 3.46827Z" fill="#9C92C5"/>
<path d="M9.86011 8.65369C9.1163 8.95121 8.5 9.90754 8.5 10.8001C8.5 11.7777 9.28632 12.819 10.1789 13.0103C11.4752 13.2866 12.9629 12.0965 12.9629 10.7789C12.9629 9.99255 12.3253 9.05747 11.5815 8.73869C10.7527 8.39866 10.4977 8.39866 9.86011 8.65369Z" fill="#9C92C5"/>
<path d="M15.1954 9.61001C14.8553 9.92879 14.6641 10.3751 14.6641 10.7789C14.6641 11.1826 14.8553 11.6289 15.1954 11.9477L15.7054 12.479H22.5272H29.3703L29.9866 11.8627C30.3266 11.5227 30.6029 11.0339 30.6029 10.7789C30.6029 10.5238 30.3266 10.035 29.9866 9.69502L29.3703 9.07872H22.5272H15.7054L15.1954 9.61001Z" fill="#9C92C5"/>
<path d="M9.11702 20.5335C7.6719 21.9786 8.75574 24.38 10.8597 24.38C11.7735 24.38 12.9636 23.1899 12.9636 22.2761C12.9636 20.1722 10.5621 19.0883 9.11702 20.5335Z" fill="#9C92C5"/>
<path d="M15.2804 20.9584C14.5578 21.7023 14.494 22.4036 15.1103 23.1899L15.5354 23.7424H22.4422C26.4588 23.7424 29.519 23.6574 29.7316 23.5299C30.3904 23.1899 30.6879 22.1698 30.3479 21.4897C29.8378 20.3847 29.5403 20.3421 22.4635 20.3421H15.8967L15.2804 20.9584Z" fill="#9C92C5"/>
<path d="M9.58525 31.4781C8.35265 32.1582 8.11888 34.0071 9.11771 35.0272C10.159 36.0473 12.1355 35.7498 12.7093 34.4746C13.1768 33.4758 13.028 32.6895 12.2417 31.9032C11.4554 31.1169 10.5203 30.9681 9.58525 31.4781Z" fill="#9C92C5"/>
<path d="M15.1103 32.3706C14.494 33.157 14.5578 33.8583 15.2804 34.6021L15.8967 35.2184H22.4635C29.5403 35.2184 29.8378 35.1759 30.3479 34.0708C30.6879 33.3907 30.3904 32.3706 29.7316 32.0306C29.519 31.9031 26.4588 31.8181 22.4422 31.8181H15.5354L15.1103 32.3706Z" fill="#9C92C5"/>
</svg>
