<svg width="48" height="45" viewBox="0 0 48 45" fill="none" xmlns="http://www.w3.org/2000/svg">
<path d="M8.64914 0.128384C3.19912 0.646446 0.795304 2.94664 0.194351 8.23089C-0.0750415 10.4689 -0.054319 30.6112 0.194351 32.6627C0.795304 37.3046 2.61889 39.5633 6.59761 40.4751C7.63373 40.7031 9.76815 40.8067 15.2596 40.8896C19.2798 40.9517 22.8026 40.931 23.0927 40.8688C24.3568 40.558 24.8334 39.211 24.0252 38.1956L23.6108 37.6776L15.6948 37.5947C6.80483 37.4911 6.18316 37.3875 4.85692 36.0819C3.5514 34.7557 3.44779 34.1133 3.34417 25.4513L3.26128 17.7425H23.7973H44.3333V19.7733C44.3333 21.6384 44.3748 21.8456 44.8099 22.26C45.7424 23.1511 47.2345 22.6745 47.566 21.369C47.6282 21.0788 47.6489 17.929 47.5867 14.3648C47.4831 7.40199 47.3174 6.05502 46.3434 4.12783C45.7839 3.05026 44.582 1.82763 43.5044 1.26812C43.1521 1.08162 42.1367 0.729336 41.2664 0.501389C39.7122 0.0662155 39.2356 0.0454941 25.0614 0.00404739C17.021 -0.016674 9.64382 0.0454941 8.64914 0.128384ZM38.3031 3.44398C42.6548 3.79627 43.7324 4.81167 44.1468 8.85256C44.2504 10.0337 44.3333 11.7537 44.2919 12.6655L44.2297 14.3233H23.818H3.40634L3.34417 12.3547C3.26128 9.59857 3.59284 7.11187 4.23524 5.78563C4.98125 4.31433 6.24533 3.67193 8.93925 3.44398C11.7575 3.21604 35.547 3.21604 38.3031 3.44398Z" fill="#9C92C5"/>
<path d="M35.215 23.3583C31.029 24.0629 27.3818 27.8344 26.7187 32.1861C25.6826 38.9831 31.7957 45.0962 38.5927 44.0601C44.25 43.2105 48.3116 37.7812 47.4412 32.2068C46.7781 27.7307 43.131 24.0421 38.7378 23.3376C37.2043 23.1096 36.8106 23.1096 35.215 23.3583ZM39.9811 27.192C41.5146 27.8758 42.9237 29.3264 43.6283 30.8806C44.8095 33.5123 44.2085 36.6621 42.0948 38.7344C39.2351 41.5527 34.9248 41.5527 32.0651 38.7344C29.2676 35.999 29.2262 31.5851 31.9615 28.7669C34.1167 26.5496 37.2043 25.9486 39.9811 27.192Z" fill="#9C92C5"/>
<path d="M38.4689 31.15C37.7643 31.8131 36.8733 32.6213 36.521 32.9529L35.8579 33.5538L35.0082 32.8078C34.0343 31.9167 33.3919 31.8338 32.6044 32.5177C32.2107 32.87 32.0449 33.2015 32.0449 33.6781C32.0449 34.2376 32.2936 34.6107 33.6198 35.9162C35.92 38.2371 35.7335 38.2785 40.3961 33.9475C41.9917 32.4555 42.1368 32.2483 42.1368 31.523C42.1368 30.5698 41.4944 29.9688 40.4583 29.9688C39.878 29.9688 39.505 30.176 38.4689 31.15Z" fill="#9C92C5"/>
<path d="M9.33228 28.2281C8.73133 28.9948 8.7935 29.6786 9.49806 30.4039L10.099 31.0049H14.8445C19.9629 31.0049 20.3981 30.922 20.8747 29.8859C21.2063 29.2227 20.9162 28.2281 20.2738 27.8965C20.0665 27.7722 17.6835 27.6893 14.8238 27.6893H9.74673L9.33228 28.2281Z" fill="#9C92C5"/>
</svg>
