<svg width="34" height="29" viewBox="0 0 34 29" fill="none" xmlns="http://www.w3.org/2000/svg">
<path d="M0.541998 28.163V22.713C2.722 22.6403 4.32066 21.9137 5.338 20.533C6.28267 19.1523 6.755 16.8997 6.755 13.775H0.323998V0.150003H15.039V11.05C15.039 16.7907 13.949 21.078 11.769 23.912C9.51633 26.746 5.774 28.163 0.541998 28.163ZM19.508 28.163V22.713C21.688 22.6403 23.2867 21.9137 24.304 20.533C25.3213 19.1523 25.83 16.8997 25.83 13.775H19.399V0.150003H34.005V11.05C34.005 16.7907 32.915 21.078 30.735 23.912C28.4823 26.746 24.74 28.163 19.508 28.163Z" fill="#FD696C"/>
</svg>
